<?xml version="1.0" encoding="utf-8"?>
<!-- Generator: Adobe Illustrator 21.1.0, SVG Export Plug-In . SVG Version: 6.00 Build 0)  -->
<svg version="1.1" id="Layer_1" xmlns="http://www.w3.org/2000/svg" xmlns:xlink="http://www.w3.org/1999/xlink" x="0px" y="0px"
	 viewBox="0 0 3000 2000" style="enable-background:new 0 0 3000 2000;" xml:space="preserve">
<style type="text/css">
	.st0{fill:none;stroke:#2682BA;stroke-width:71.9191;stroke-linecap:round;stroke-linejoin:round;stroke-miterlimit:10;}
	.st1{fill:#FF8545;}
	.st2{fill:#F8F8F8;}
	.st3{fill:none;stroke:#FF8545;stroke-width:53.9394;stroke-linecap:round;stroke-linejoin:round;stroke-miterlimit:10;}
</style>
<g>
	<rect x="436.1" y="453.7" class="st0" width="1947.8" height="1332"/>
	<polygon class="st0" points="1410,1299.5 436.1,453.7 2383.9,453.7 	"/>
	<circle class="st1" cx="2319.3" cy="560.4" r="207.5"/>
	<g>
		<path class="st2" d="M2254.2,624.3h44.5V506.1h-38.3v-29.3c22.2-4.2,36.4-10,50.9-18.7h34.8v166.2h38.3v38.3h-130.1L2254.2,624.3
			L2254.2,624.3z"/>
	</g>
	<line class="st3" x1="2319.3" y1="255.6" x2="2319.3" y2="214.3"/>
	<line class="st3" x1="2319.3" y1="255.6" x2="2319.3" y2="214.3"/>
	<line class="st3" x1="2319.3" y1="255.6" x2="2319.3" y2="214.3"/>
	<line class="st3" x1="2319.3" y1="255.6" x2="2319.3" y2="214.3"/>
	<line class="st3" x1="2534.7" y1="344.8" x2="2563.9" y2="315.6"/>
	<line class="st3" x1="2103.9" y1="344.8" x2="2074.7" y2="315.6"/>
</g>
</svg>
