<?xml version="1.0" encoding="utf-8"?>
<!-- Generator: Adobe Illustrator 21.1.0, SVG Export Plug-In . SVG Version: 6.00 Build 0)  -->
<svg version="1.1" id="Laag_1" xmlns="http://www.w3.org/2000/svg" xmlns:xlink="http://www.w3.org/1999/xlink" x="0px" y="0px"
	 viewBox="0 0 18 18" style="enable-background:new 0 0 18 18;" xml:space="preserve">
<style type="text/css">
	.st0{fill:#2682BA;}
	.st1{fill:#FF8544;}
	.st2{fill:none;}
	.st3{enable-background:new    ;}
	.st4{fill:#FFFFFF;}
</style>
<path class="st0" d="M15.9,14.4c-1.3-1.1-2.5-2.8-2.5-6.8c0-2.3-1.9-4.2-4.2-4.2S5,5.3,5,7.6c0,4-1.2,5.6-2.5,6.8
	c-0.4,0.3-0.6,0.8-0.6,1.3c0,0.3,0.2,0.5,0.5,0.5H7c0.1,1,1,1.8,2.1,1.8s2.1-0.8,2.3-1.9H16c0.3,0,0.5-0.2,0.5-0.5
	C16.5,15.2,16.3,14.7,15.9,14.4z M9.1,17c-0.6,0-1.1-0.4-1.3-0.9h2.6C10.2,16.7,9.7,17,9.1,17z M2.9,15.2C3,15.1,3,15.1,2.9,15.2
	c2.1-1.8,2.9-4,2.9-7.6c0-1.8,1.5-3.3,3.3-3.3s3.3,1.5,3.3,3.3c0,3.5,0.9,5.8,2.9,7.5c0,0,0,0,0.1,0.1C15.4,15.2,2.9,15.2,2.9,15.2z
	"/>
<path class="st1" d="M8.4,1.4L8.4,1.4c0.2-0.2,0.4-0.2,0.6,0l0.3,0.3c0.2,0.2,0.2,0.4,0,0.6l0,0c-0.2,0.2-0.4,0.2-0.6,0L8.4,1.9
	C8.3,1.8,8.3,1.5,8.4,1.4z"/>
<circle class="st1" cx="11.8" cy="4.8" r="2.5"/>
<rect x="9.4" y="3.5" class="st2" width="4.9" height="2.6"/>
<g class="st3">
	<path class="st4" d="M12.2,6h-0.4V4.1l-0.6,0.2V3.9l0.9-0.3h0.1V6z"/>
</g>
<path class="st1" d="M11.8,0.6L11.8,0.6c0.2,0,0.4,0.2,0.4,0.4v0.4c0,0.2-0.2,0.4-0.4,0.4l0,0c-0.2,0-0.4-0.2-0.4-0.4V1
	C11.4,0.8,11.6,0.6,11.8,0.6z"/>
<path class="st1" d="M15.3,1.4L15.3,1.4c0.2,0.2,0.2,0.4,0,0.6L15,2.2c-0.2,0.2-0.4,0.2-0.6,0l0,0c-0.2-0.2-0.2-0.4,0-0.6l0.3-0.3
	C14.8,1.2,15.1,1.2,15.3,1.4z"/>
</svg>
