<?xml version="1.0" encoding="utf-8"?>
<!-- Generator: Adobe Illustrator 21.1.0, SVG Export Plug-In . SVG Version: 6.00 Build 0)  -->
<svg version="1.1" id="Laag_1" xmlns="http://www.w3.org/2000/svg" xmlns:xlink="http://www.w3.org/1999/xlink" x="0px" y="0px"
	 viewBox="0 0 36 36" style="enable-background:new 0 0 36 36;" xml:space="preserve">
<style type="text/css">
	.st0{fill:#2682BA;}
</style>
<path class="st0" d="M21.9,4c-5.6,0-10.1,4.5-10.1,10.1c0,2,0.6,3.9,1.6,5.5l-8.8,8.8C4.2,28.7,4,29.3,4,29.8l0,0.1
	C4,31.1,4.9,32,6.1,32h0c0.6,0,1.1-0.2,1.5-0.6l8.8-8.8c1.6,1,3.4,1.6,5.5,1.6c5.6,0,10.1-4.5,10.1-10.1S27.5,4,21.9,4z M21.9,21.9
	c-2.7,0-5.1-1.4-6.5-3.4c-0.8-1.2-1.3-2.7-1.3-4.4c0-4.3,3.5-7.8,7.8-7.8s7.8,3.5,7.8,7.8C29.7,18.4,26.2,21.9,21.9,21.9z"/>
</svg>
