<?xml version="1.0" encoding="utf-8"?>
<!-- Generator: Adobe Illustrator 21.1.0, SVG Export Plug-In . SVG Version: 6.00 Build 0)  -->
<svg version="1.1" id="Laag_1" xmlns="http://www.w3.org/2000/svg" xmlns:xlink="http://www.w3.org/1999/xlink" x="0px" y="0px"
	 viewBox="0 0 811 811" style="enable-background:new 0 0 811 811;" xml:space="preserve">
<style type="text/css">
	.st0{fill:#2682BA;}
	.st1{fill:#FFFFFF;}
</style>
<circle class="st0" cx="164.8" cy="332.2" r="163.8"/>
<circle class="st1" cx="164.8" cy="332.2" r="136.3"/>
<g>
	<path class="st0" d="M182.4,346.5h-34.8c0.4,11.3,3.2,19.8,8.6,25.4c5.3,5.6,12.9,8.4,22.8,8.4c7.2,0,13.9-1.1,20-3.2l2.7,19.9
		c-7.8,1.9-15.9,2.8-24.2,2.8c-16.7,0-29.8-4.7-39.4-14.1c-9.6-9.4-14.6-22.5-15.2-39.3h-16.8v-13.8H123v-12.5h-16.8v-13.8h16.9
		c0.8-16.6,6.2-29.5,15.9-38.8s22.9-13.8,39.4-13.8c6.9,0,14.7,1,23.4,3.1l-2.7,20.2c-6.6-2.2-13.3-3.3-19.8-3.3
		c-9.8,0-17.4,2.8-22.7,8.4c-5.3,5.6-8.2,13.7-8.8,24.3h34.7v13.8h-34.8v12.5h34.8V346.5z"/>
</g>
<g>
	<g>
		<path class="st0" d="M350,341h84.6v11.8c0,0.5,0.2,1,0.6,1.4c0.4,0.4,0.9,0.6,1.4,0.6c0.6,0,1-0.2,1.4-0.6l19.7-19.7
			c0.4-0.4,0.6-0.8,0.6-1.4c0-0.6-0.2-1-0.6-1.4l-19.6-19.6c-0.5-0.4-1-0.6-1.5-0.6c-0.6,0-1,0.2-1.4,0.6c-0.4,0.4-0.6,0.8-0.6,1.4
			v11.8H350c-0.5,0-1,0.2-1.4,0.6s-0.6,0.9-0.6,1.4v11.8c0,0.5,0.2,1,0.6,1.4S349.4,341,350,341z"/>
		<path class="st0" d="M456.3,364.6h-84.6v-11.8c0-0.5-0.2-1-0.6-1.4c-0.4-0.4-0.9-0.6-1.4-0.6c-0.6,0-1,0.2-1.4,0.6l-19.7,19.7
			c-0.4,0.4-0.6,0.8-0.6,1.4c0,0.5,0.2,1,0.6,1.4l19.6,19.7c0.5,0.4,1,0.6,1.5,0.6c0.5,0,1-0.2,1.4-0.6c0.4-0.4,0.6-0.9,0.6-1.4
			v-11.8h84.6c0.5,0,1-0.2,1.4-0.6c0.4-0.4,0.6-0.9,0.6-1.4v-11.8c0-0.5-0.2-1-0.6-1.4C457.3,364.8,456.8,364.6,456.3,364.6z"/>
	</g>
</g>
<g>
	<g>
		<path class="st0" d="M481.2,468.3l149.4-241.5l-26.1-40.4c-3.5-5.4-2-12.6,3.5-16.1c5.4-3.5,12.6-2,16.1,3.5l20.8,32.2l20.8-32.2
			c3.5-5.4,10.7-7,16.1-3.5c5.4,3.5,7,10.7,3.5,16.1l-26.1,40.4l149.4,241.5c3.4,5.4,3.5,12.1,0.5,17.6c-3.1,5.6-8.9,8.9-15.2,8.9
			h-66.1c-6,0-11.5-3-14.8-8.1l-56.2-87.7c-2.6-4-7-6.5-11.8-6.5c-4.8,0-9.2,2.4-11.8,6.5l-56.2,87.7c-3.2,5-8.8,8.1-14.8,8.1H496
			c-6.3,0-12.2-3.4-15.3-9C477.7,480.4,477.9,473.7,481.2,468.3z"/>
	</g>
</g>
</svg>
